<?xml version="1.0" encoding="UTF-8" standalone="no"?>
<!-- Created with Sodipodi ("http://www.sodipodi.com/") -->
<svg
   xmlns:dc="http://purl.org/dc/elements/1.1/"
   xmlns:cc="http://web.resource.org/cc/"
   xmlns:rdf="http://www.w3.org/1999/02/22-rdf-syntax-ns#"
   xmlns:svg="http://www.w3.org/2000/svg"
   xmlns="http://www.w3.org/2000/svg"
   xmlns:xlink="http://www.w3.org/1999/xlink"
   xmlns:sodipodi="http://inkscape.sourceforge.net/DTD/sodipodi-0.dtd"
   xmlns:inkscape="http://www.inkscape.org/namespaces/inkscape"
   version="1"
   x="0.00000000"
   y="0.00000000"
   width="744.094482"
   height="1052.36218"
   id="svg625"
   sodipodi:version="0.32"
   inkscape:version="0.43"
   sodipodi:docname="katoob.svg"
   sodipodi:docbase="/home/mohammed/projects/katoob/src/pixmaps"
   inkscape:export-filename="/home/mohammed/projects/katoob/src/pixmaps/katoob.png"
   inkscape:export-xdpi="33.200001"
   inkscape:export-ydpi="33.200001">
  <metadata
     id="metadata31">
    <rdf:RDF>
      <cc:Work
         rdf:about="">
        <dc:format>image/svg+xml</dc:format>
        <dc:type
           rdf:resource="http://purl.org/dc/dcmitype/StillImage" />
      </cc:Work>
    </rdf:RDF>
  </metadata>
  <sodipodi:namedview
     inkscape:cy="417.84947"
     inkscape:cx="305.25953"
     inkscape:zoom="0.43415836"
     inkscape:window-height="544"
     inkscape:window-width="713"
     inkscape:pageshadow="2"
     inkscape:pageopacity="0.0"
     borderopacity="1.0"
     bordercolor="#666666"
     pagecolor="#ffffff"
     id="base"
     inkscape:window-x="48"
     inkscape:window-y="173"
     inkscape:current-layer="svg625" />
  <defs
     id="defs627">
    <linearGradient
       x1="0.00000000"
       y1="0.00000000"
       x2="1.00000000"
       y2="0.00000000"
       id="linearGradient677"
       gradientUnits="objectBoundingBox"
       spreadMethod="pad">
      <stop
         style="stop-color:#000000;stop-opacity:1;"
         offset="0.00000000"
         id="stop678" />
      <stop
         style="stop-color:#6f726f;stop-opacity:1;"
         offset="1.00000000"
         id="stop679" />
    </linearGradient>
    <linearGradient
       x1="0.00000000"
       y1="0.00000000"
       x2="1.00000000"
       y2="0.00000000"
       id="linearGradient654"
       gradientUnits="objectBoundingBox"
       spreadMethod="pad">
      <stop
         style="stop-color:#d7522a;stop-opacity:1;"
         offset="0.00000000"
         id="stop655" />
      <stop
         style="stop-color:#ffd782;stop-opacity:1;"
         offset="1.00000000"
         id="stop656" />
    </linearGradient>
    <linearGradient
       x1="0.00000000"
       y1="0.00000000"
       x2="1.00000000"
       y2="0.00000000"
       id="linearGradient629"
       gradientUnits="objectBoundingBox"
       spreadMethod="pad">
      <stop
         style="stop-color:#a68f6f;stop-opacity:1;"
         offset="0.00000000"
         id="stop630" />
      <stop
         style="stop-color:#ffffff;stop-opacity:1;"
         offset="1.00000000"
         id="stop631" />
    </linearGradient>
    <linearGradient
       x1="0.92173904"
       y1="0.98437500"
       x2="-0.38260871"
       y2="-0.64062500"
       id="linearGradient632"
       xlink:href="#linearGradient629"
       gradientUnits="objectBoundingBox"
       spreadMethod="pad" />
    <linearGradient
       x1="-0.00000000"
       y1="0.00000004"
       x2="1.00000000"
       y2="0.00000004"
       id="linearGradient647"
       xlink:href="#linearGradient629"
       gradientUnits="objectBoundingBox"
       spreadMethod="pad" />
    <linearGradient
       x1="0.45381528"
       y1="0.16667242"
       x2="0.45381525"
       y2="0.70833665"
       id="linearGradient653"
       xlink:href="#linearGradient654"
       gradientUnits="objectBoundingBox"
       gradientTransform="translate(2.400859e-8,1.098078e-6)"
       spreadMethod="pad" />
    <linearGradient
       x1="0.61847371"
       y1="-0.83333176"
       x2="0.61847383"
       y2="1.25000155"
       id="linearGradient661"
       xlink:href="#linearGradient677"
       gradientUnits="objectBoundingBox"
       spreadMethod="pad" />
    <linearGradient
       x1="0.00000000"
       y1="0.00000000"
       x2="1.00000000"
       y2="0.00000000"
       id="linearGradient676"
       xlink:href="#linearGradient677"
       gradientUnits="objectBoundingBox"
       spreadMethod="pad" />
  </defs>
  <rect
     width="380.244934"
     height="422.458160"
     ry="41.9233551"
     x="-108.297211"
     y="355.762848"
     transform="matrix(0.860785,-0.508968,0.513879,0.857862,0.000000,0.000000)"
     style="font-size:12;fill:none;fill-opacity:0;fill-rule:evenodd;stroke:#000000;stroke-width:27.3522;stroke-opacity:0.0892857;"
     id="rect728" />
  <rect
     width="359.323639"
     height="400.337219"
     ry="39.7281418"
     x="-110.194138"
     y="353.702301"
     transform="matrix(0.861647,-0.507509,0.515332,0.856990,0.000000,0.000000)"
     style="font-size:12;fill:url(#linearGradient632);fill-rule:evenodd;stroke-width:1.48642;"
     id="rect633" />
  <path
     d="M 326.002 102.703 C 230.721 132.626 135.44 162.549 40.1597 192.472 C 28.8488 200.06 22.5493 210.988 21.261 230.269 C 57.4833 338.937 93.7057 447.604 129.928 556.272 C 114.966 499.969 42.7644 262.758 45.2916 233.243 C 48.7808 190.185 241.612 137.029 326.002 102.703 z "
     transform="matrix(-0.985862,0.227578,-0.230406,-0.973760,658.2755,709.1083)"
     style="font-size:12;fill:#595959;fill-opacity:0.491071;fill-rule:evenodd;stroke-width:1pt;"
     id="path726" />
  <path
     d="M 326.002 102.703 C 230.721 132.626 135.44 162.549 40.1597 192.472 C 28.8488 200.06 22.5493 210.988 21.261 230.269 C 57.4833 338.937 93.7057 447.604 129.928 556.272 C 114.966 499.969 37.5758 258.745 48.6324 226.561 C 56.9736 192.557 241.612 137.029 326.002 102.703 z "
     transform="matrix(0.976099,-0.217326,0.217326,0.976099,31.74903,160.9575)"
     style="font-size:12;fill:#ffffff;fill-opacity:0.598214;fill-rule:evenodd;stroke-width:1pt;"
     id="path725" />
  <text
     x="199.91513"
     y="564.8396"
     transform="matrix(0.894831,-0.491127,0.532542,0.825244,0,0)"
     style="font-size:426.25787354px;font-weight:bold;line-height:125%;stroke-width:1pt;font-family:ae_Rasheeq Bold"
     id="text648"
     sodipodi:linespacing="125%">
    <tspan
       x="199.91513"
       y="564.8396"
       id="tspan722"
       style="font-size:249.74833679px;font-style:normal;font-variant:normal;font-weight:normal;font-stretch:normal;text-align:start;line-height:125%;writing-mode:lr-tb;text-anchor:start;font-family:Tahoma">ض</tspan>
  </text>
  <rect
     width="380.245239"
     height="422.458649"
     ry="41.9234009"
     x="-122.059929"
     y="339.809204"
     transform="matrix(0.860785,-0.508968,0.513879,0.857862,0.000000,0.000000)"
     style="font-size:12;fill:none;fill-opacity:0;fill-rule:evenodd;stroke:#000000;stroke-width:27.3522;"
     id="rect628" />
  <g
     transform="matrix(0.969229,-0.246158,0.246158,0.969229,83.86392,158.0721)"
     style="font-size:12;"
     id="g686">
    <rect
       width="333.965485"
       height="34.8918991"
       ry="12.4613419"
       x="-323.603577"
       y="-495.331024"
       transform="matrix(-0.949939,0.312437,-0.312437,-0.949938,0.000000,0.000000)"
       style="fill:url(#linearGradient653);fill-rule:evenodd;stroke:#000000;stroke-width:3.56128;stroke-linejoin:round;"
       id="rect652" />
    <path
       d="M 160.36 420.11 L 160.36 445.165 L 122.776 434.308 L 160.36 420.11 z "
       transform="matrix(1.328232,-0.436857,0.422206,1.283681,-248.3961,-30.67996)"
       style="fill:#e9c27d;fill-rule:evenodd;stroke:#000000;stroke-width:2.5;"
       id="path662" />
    <path
       d="M 160.36 420.11 L 160.36 445.165 L 122.776 434.308 L 160.36 420.11 z "
       transform="matrix(0.472428,-0.155382,0.186449,0.566884,-37.40870,245.5076)"
       style="fill-rule:evenodd;stroke:#000000;stroke-width:2.5;"
       id="path663" />
  </g>
  <rect
     width="400.045044"
     height="444.456451"
     ry="44.1063919"
     x="-131.959839"
     y="328.809998"
     transform="matrix(0.860785,-0.508968,0.513879,0.857863,0.000000,0.000000)"
     style="font-size:12;fill:none;fill-opacity:0;fill-rule:evenodd;stroke:#000000;stroke-width:28.7765;stroke-opacity:0;"
     id="rect731" />
</svg>
